<svg width="30.000000" height="30.000000" viewBox="0 0 30 30" fill="none" xmlns="http://www.w3.org/2000/svg" xmlns:xlink="http://www.w3.org/1999/xlink">
	<desc>
			Created with Pixso.
	</desc>
	<defs>
		<clipPath id="clip10_233">
			<rect id="icons" rx="0.000000" width="22.000000" height="22.000000" transform="translate(3.500000 4.500000)" fill="white" fill-opacity="0"/>
		</clipPath>
		<clipPath id="clip10_232">
			<rect id="icons" rx="14.500000" width="29.000000" height="29.000000" transform="translate(0.500000 0.500000)" fill="white" fill-opacity="0"/>
		</clipPath>
	</defs>
	<rect id="icons" rx="14.500000" width="29.000000" height="29.000000" transform="translate(0.500000 0.500000)" fill="#091D71" fill-opacity="1.000000"/>
	<g clip-path="url(#clip10_232)">
		<g clip-path="url(#clip10_233)">
			<path id="Vector" d="M14.5 7C13.31 7 12.17 7.47 11.33 8.31C10.49 9.14 10.02 10.28 10.02 11.47C10.02 12.66 10.49 13.79 11.33 14.63C12.17 15.47 13.31 15.94 14.5 15.94C15.68 15.94 16.82 15.47 17.66 14.63C18.5 13.79 18.97 12.66 18.97 11.47C18.97 10.28 18.5 9.14 17.66 8.31C16.82 7.47 15.68 7 14.5 7ZM14.5 16.84C12.12 16.84 9.85 17.21 8.17 17.89C6.49 18.56 6 19.47 6 20.42C6 21.37 6.49 22.28 8.17 22.95C9.85 23.62 12.12 24 14.5 24C16.87 24 19.14 23.62 20.82 22.95C22.5 22.28 23 21.37 23 20.42C23 19.47 22.5 18.56 20.82 17.89C19.14 17.21 16.87 16.84 14.5 16.84Z" fill="#FFFFFF" fill-opacity="1.000000" fill-rule="evenodd"/>
		</g>
	</g>
</svg>
