<svg width="47.123047" height="38.000000" viewBox="0 0 47.123 38" fill="none" xmlns="http://www.w3.org/2000/svg" xmlns:xlink="http://www.w3.org/1999/xlink">
	<desc>
			Created with Pixso.
	</desc>
	<defs/>
	<mask id="mask10_291" mask-type="alpha" maskUnits="userSpaceOnUse" x="0.000000" y="0.000000" width="47.123047" height="38.000000">
		<path id="Vector" d="M0 0L47.12 0L47.12 38L0 38L0 0Z" fill="#000000" fill-opacity="1.000000" fill-rule="evenodd"/>
	</mask>
	<g mask="url(#mask10_291)">
		<path id="Vector" d="M17 0.14C19 0.4 21.46 1.34 23.12 2.49L23.54 2.78L24.26 2.31C28.22 -0.3 33.56 -0.74 37.98 1.17C39.98 2.03 41.46 3.07 42.99 4.69C47.36 9.32 48.36 16.13 45.51 21.93C44.75 23.49 43.84 24.74 42.53 26.03C40.37 28.14 37.92 29.43 34.93 30.03C33.36 30.35 31.06 30.35 29.48 30.03C27.57 29.65 25.57 28.84 24.08 27.84L23.55 27.49L23.03 27.85C22.32 28.34 20.47 29.24 19.52 29.55C15.91 30.74 12.06 30.49 8.56 28.84C5.53 27.41 2.82 24.66 1.4 21.57C-1.21 15.9 -0.12 9.17 4.12 4.68C7.51 1.1 12.02 -0.49 17 0.14ZM13.57 1.96C11.41 2.21 9.41 2.96 7.54 4.23C6.59 4.87 4.74 6.76 4.1 7.73C2.02 10.93 1.37 14.72 2.28 18.37C4.15 25.87 11.83 30.12 19.07 27.67C19.96 27.37 21.18 26.79 21.68 26.43L21.97 26.23L21.53 25.76C19.46 23.56 18.17 21.05 17.54 18.02C17.25 16.62 17.22 13.98 17.48 12.53C17.99 9.7 19.32 6.99 21.26 4.79C22.04 3.92 22.06 4.02 20.95 3.41C18.91 2.29 15.87 1.69 13.57 1.96ZM30.84 1.96C29.14 2.16 27.21 2.79 25.83 3.61L25.15 4L25.96 4.93C27.9 7.16 29.1 9.66 29.63 12.58C29.89 13.98 29.86 16.63 29.57 18.02C28.97 20.89 27.7 23.43 25.84 25.48C25.28 26.1 25.15 26.29 25.26 26.36C25.82 26.73 27.27 27.42 28.02 27.67C29.6 28.2 30.44 28.34 32.26 28.33C33.68 28.33 34.07 28.29 35.02 28.06C39.57 26.98 43.19 23.64 44.6 19.23C45.45 16.57 45.42 13.37 44.51 10.78C42.93 6.29 39.18 3.01 34.6 2.13C33.57 1.93 31.81 1.85 30.84 1.96ZM22.85 5.89C21.86 6.96 21.08 8.11 20.5 9.33C18.67 13.14 18.73 17.52 20.67 21.29C21.25 22.43 22.19 23.73 23 24.53L23.57 25.09L24.37 24.22C26.06 22.41 27.12 20.35 27.67 17.81C27.97 16.44 27.99 14.07 27.73 12.72C27.36 10.86 26.73 9.31 25.71 7.76C25.11 6.84 23.73 5.21 23.56 5.21C23.51 5.21 23.19 5.52 22.85 5.89ZM45.27 35.1L45.27 37.94L44.87 37.94C44.54 37.94 44.47 37.91 44.47 37.74C44.47 37.55 44.46 37.55 44.11 37.76C43.32 38.23 42.13 37.93 41.6 37.12C41.05 36.28 41.2 34.93 41.92 34.3C42.56 33.72 43.58 33.62 44.18 34.07L44.47 34.29L44.47 33.27L44.47 32.25L44.87 32.25L45.27 32.25L45.27 35.1ZM19.55 33.27L19.55 33.88L20.25 33.88L20.95 33.88L20.95 34.23L20.95 34.59L20.25 34.59L19.55 34.59L19.55 35.69C19.55 36.44 19.59 36.84 19.68 36.97C19.83 37.17 20.23 37.22 20.66 37.09C20.9 37.02 20.94 37.05 21.04 37.34C21.1 37.52 21.15 37.68 21.15 37.69C21.15 37.71 21.01 37.78 20.83 37.85C20.35 38.05 19.6 38.02 19.27 37.78C18.82 37.43 18.75 37.18 18.75 35.83L18.75 34.59L18.35 34.59C17.96 34.59 17.95 34.58 17.95 34.23C17.95 33.89 17.96 33.88 18.35 33.88L18.75 33.88L18.75 33.27L18.75 32.66L19.15 32.66L19.55 32.66L19.55 33.27ZM4.48 33.92C4.66 34 4.88 34.16 4.96 34.27L5.11 34.49L5.3 34.27C5.94 33.54 7.27 33.65 7.81 34.48C8.02 34.8 8.04 34.93 8.04 36.39L8.04 37.96L7.61 37.92L7.19 37.89L7.14 36.45C7.08 34.77 7 34.59 6.3 34.59C5.44 34.59 5.24 35.01 5.24 36.81L5.24 37.96L4.86 37.92L4.49 37.89L4.44 36.45C4.39 35.23 4.36 34.99 4.2 34.8C3.94 34.52 3.25 34.51 2.92 34.78C2.7 34.97 2.68 35.06 2.64 36.43L2.59 37.89L2.21 37.92L1.83 37.96L1.83 35.92L1.83 33.88L2.24 33.88C2.52 33.88 2.64 33.92 2.64 34.03C2.64 34.21 2.79 34.23 2.89 34.07C3.07 33.77 3.94 33.69 4.48 33.92ZM11.68 34.02C12.11 34.24 12.14 34.24 12.14 34.07C12.14 33.91 12.22 33.88 12.54 33.88L12.94 33.88L12.94 35.91L12.94 37.94L12.54 37.94C12.18 37.94 12.14 37.92 12.14 37.67L12.14 37.4L11.9 37.63C11.48 38.03 10.59 38.12 9.99 37.82C9.54 37.59 9.13 37.07 8.98 36.55C8.46 34.73 10.09 33.2 11.68 34.02ZM16.62 33.93C16.91 34.02 17.16 34.12 17.19 34.17C17.21 34.21 17.13 34.38 17.01 34.54C16.79 34.82 16.76 34.82 16.45 34.69C15.9 34.46 15.19 34.5 14.92 34.77L14.7 35.01L14.92 35.19C15.04 35.29 15.4 35.41 15.72 35.45C16.37 35.53 16.99 35.82 17.14 36.11C17.29 36.39 17.27 36.89 17.09 37.25C16.77 37.88 15.46 38.14 14.41 37.78C13.85 37.59 13.77 37.45 14 37.09C14.16 36.84 14.18 36.84 14.47 36.99C14.86 37.2 15.73 37.28 16.07 37.14C16.7 36.9 16.43 36.39 15.62 36.27C14.78 36.14 14.64 36.09 14.35 35.85C13.97 35.53 13.88 35.05 14.08 34.55C14.37 33.86 15.48 33.59 16.62 33.93ZM24.56 34.01C25.11 34.3 25.55 35.09 25.55 35.78L25.55 36.22L24.1 36.22C23.25 36.22 22.65 36.26 22.65 36.31C22.65 36.56 22.92 36.96 23.17 37.09C23.54 37.28 24.17 37.27 24.61 37.06C24.97 36.88 24.98 36.88 25.16 37.12C25.44 37.46 25.41 37.52 24.88 37.76C23.99 38.17 22.78 37.99 22.23 37.37C21.72 36.8 21.6 35.63 21.96 34.84C22.42 33.86 23.58 33.49 24.56 34.01ZM28.79 33.83C28.91 33.88 28.91 33.96 28.83 34.24C28.73 34.57 28.7 34.59 28.26 34.59C27.89 34.59 27.74 34.64 27.55 34.85C27.32 35.1 27.3 35.19 27.27 36.53L27.24 37.95L26.87 37.92L26.51 37.89L26.48 35.89L26.45 33.88L26.85 33.88C27.19 33.88 27.26 33.91 27.26 34.08C27.26 34.27 27.27 34.27 27.62 34.03C27.97 33.79 28.46 33.71 28.79 33.83ZM36.17 34.07C36.46 34.29 36.46 34.29 36.46 34.08C36.46 33.91 36.53 33.88 36.86 33.88L37.26 33.88L37.26 35.91L37.26 37.94L36.86 37.94C36.53 37.94 36.46 37.91 36.46 37.74C36.46 37.55 36.45 37.55 36.09 37.77C35.31 38.23 34.12 37.93 33.6 37.14C33.29 36.66 33.17 35.72 33.36 35.16C33.52 34.65 33.92 34.19 34.41 33.96C34.94 33.71 35.75 33.76 36.17 34.07ZM40.82 33.91C40.85 33.99 40.83 34.17 40.77 34.32C40.69 34.55 40.61 34.59 40.26 34.59C39.41 34.59 39.27 34.89 39.27 36.69L39.27 37.94L38.87 37.94L38.47 37.94L38.47 35.91L38.47 33.88L38.87 33.88C39.2 33.88 39.27 33.91 39.27 34.08C39.27 34.27 39.28 34.27 39.63 34.03C40.03 33.75 40.74 33.68 40.82 33.91ZM32.2 34.02C32.65 34.21 32.7 34.33 32.5 34.67L32.34 34.96L31.98 34.78C31.04 34.29 30.06 34.86 30.06 35.91C30.06 36.39 30.26 36.85 30.58 37.07C30.87 37.28 31.62 37.28 32.01 37.07C32.29 36.93 32.31 36.93 32.48 37.15C32.74 37.5 32.7 37.63 32.29 37.81C31.48 38.16 30.25 37.95 29.74 37.37C29.08 36.63 29.13 34.98 29.82 34.37C30.39 33.88 31.48 33.72 32.2 34.02ZM10.26 34.75C9.77 35.1 9.58 36.02 9.89 36.63C10.23 37.29 11.19 37.41 11.75 36.87C12.27 36.37 12.26 35.4 11.74 34.88C11.51 34.64 11.37 34.59 10.97 34.59C10.69 34.59 10.39 34.66 10.26 34.75ZM23.05 34.72C22.87 34.87 22.55 35.31 22.55 35.43C22.55 35.47 23.02 35.5 23.6 35.5C24.79 35.5 24.89 35.42 24.36 34.89C24.13 34.65 23.98 34.59 23.64 34.59C23.4 34.59 23.13 34.65 23.05 34.72ZM34.57 34.85C33.37 35.87 34.61 37.85 35.93 37.03C36.65 36.59 36.73 35.54 36.1 34.88C35.72 34.48 35.02 34.47 34.57 34.85ZM42.72 34.71C41.95 35.17 41.88 36.37 42.58 36.97C42.95 37.29 43.49 37.31 43.94 37.03C44.31 36.8 44.44 36.59 44.48 36.16C44.53 35.5 44.47 35.28 44.13 34.93C43.85 34.65 43.72 34.59 43.35 34.59C43.11 34.59 42.83 34.65 42.72 34.71Z" fill="#091D71" fill-opacity="1.000000" fill-rule="evenodd"/>
	</g>
</svg>
