<svg width="30.000000" height="30.000000" viewBox="0 0 30 30" fill="none" xmlns="http://www.w3.org/2000/svg" xmlns:xlink="http://www.w3.org/1999/xlink">
	<desc>
			Created with Pixso.
	</desc>
	<defs>
		<clipPath id="clip10_238">
			<rect id="Frame 2087326147" rx="0.000000" width="23.000000" height="23.000000" transform="translate(3.500000 3.500000)" fill="white" fill-opacity="0"/>
		</clipPath>
		<clipPath id="clip10_237">
			<rect id="icons" rx="14.500000" width="29.000000" height="29.000000" transform="translate(0.500000 0.500000)" fill="white" fill-opacity="0"/>
		</clipPath>
	</defs>
	<rect id="icons" rx="14.500000" width="29.000000" height="29.000000" transform="translate(0.500000 0.500000)" fill="#091D71" fill-opacity="1.000000"/>
	<g clip-path="url(#clip10_237)">
		<g clip-path="url(#clip10_238)">
			<path id="Vector" d="M22.99 19.67C22.89 20.11 22.66 20.5 22.32 20.78C21.94 21.17 21.49 21.48 20.99 21.68C20.49 21.89 19.96 22 19.42 22L19.15 22C18.03 21.94 16.94 21.66 15.93 21.18C15.68 21.06 15.44 20.95 15.16 20.82C13.97 20.15 12.88 19.32 11.92 18.35C10.67 17.17 9.65 15.78 8.9 14.23C8.49 13.39 8.22 12.48 8.08 11.55C7.9 10.58 8.01 9.58 8.4 8.68C8.64 8.27 8.94 7.89 9.28 7.56C9.44 7.39 9.63 7.25 9.84 7.15C10.05 7.05 10.28 7 10.51 7C10.76 7.02 11.01 7.1 11.23 7.22C11.45 7.35 11.65 7.51 11.81 7.71C12.16 8.11 12.58 8.48 12.95 8.88L13.44 9.36C13.72 9.61 13.9 9.97 13.93 10.35C13.93 10.7 13.8 11.04 13.57 11.3C13.42 11.48 13.26 11.66 13.1 11.82L12.94 11.99C12.84 12.08 12.77 12.19 12.72 12.31C12.68 12.42 12.67 12.55 12.68 12.67C12.81 13.01 13 13.31 13.25 13.57C13.64 14.1 14.02 14.56 14.44 15.11C15.17 15.95 16.04 16.67 17 17.23C17.09 17.3 17.21 17.36 17.32 17.38C17.43 17.39 17.54 17.38 17.63 17.33C17.92 17.17 18.18 16.96 18.4 16.7C18.67 16.37 19.06 16.16 19.49 16.11C19.7 16.11 19.9 16.15 20.09 16.23C20.28 16.31 20.45 16.43 20.59 16.58C20.77 16.73 20.93 16.89 21.09 17.07L21.32 17.31L21.56 17.54C21.7 17.69 21.84 17.82 21.98 17.98C22.23 18.19 22.46 18.43 22.68 18.68C22.9 18.96 23.01 19.32 22.99 19.67Z" fill="#FFFFFF" fill-opacity="1.000000" fill-rule="nonzero"/>
		</g>
	</g>
</svg>
