<svg width="215.000000" height="18.000000" viewBox="0 0 215 18" fill="none" xmlns="http://www.w3.org/2000/svg" xmlns:xlink="http://www.w3.org/1999/xlink">
	<desc>
			Created with Pixso.
	</desc>
	<defs>
		<clipPath id="clip1_1768">
			<rect id="UB_KOMPONENTA 1" rx="0.000000" width="214.000000" height="17.000000" transform="translate(0.500000 0.500000)" fill="white" fill-opacity="0"/>
		</clipPath>
	</defs>
	<rect id="UB_KOMPONENTA 1" rx="0.000000" width="214.000000" height="17.000000" transform="translate(0.500000 0.500000)" fill="#FFFFFF" fill-opacity="0"/>
	<g clip-path="url(#clip1_1768)">
		<path id="Vector" d="M7.18 18C4.99 18 3.27 17.32 2.02 15.97C0.79 14.62 0.18 12.67 0.18 10.12L0.18 0.25L3.14 0.25L3.14 10C3.14 11.8 3.49 13.1 4.19 13.92C4.9 14.74 5.91 15.14 7.2 15.14C8.49 15.14 9.49 14.74 10.19 13.92C10.89 13.1 11.24 11.8 11.24 10L11.24 0.25L14.15 0.25L14.15 10.12C14.15 12.67 13.53 14.62 12.28 15.97C11.05 17.32 9.35 18 7.18 18ZM18.3 17.75L18.3 0.25L25.78 0.25C27.7 0.25 29.16 0.66 30.16 1.5C31.16 2.31 31.66 3.41 31.66 4.8C31.66 5.73 31.47 6.53 31.07 7.19C30.68 7.85 30.15 8.35 29.48 8.72C28.82 9.07 28.11 9.25 27.33 9.25L27.74 8.35C28.64 8.35 29.45 8.53 30.16 8.89C30.87 9.25 31.44 9.76 31.85 10.45C32.27 11.13 32.49 11.98 32.49 13C32.49 14.5 31.96 15.66 30.91 16.5C29.86 17.33 28.31 17.75 26.24 17.75L18.3 17.75ZM21.27 15.2L26.06 15.2C27.17 15.2 28.02 15 28.61 14.6C29.2 14.2 29.5 13.55 29.5 12.67C29.5 11.8 29.2 11.17 28.61 10.77C28.02 10.35 27.17 10.14 26.06 10.14L21.04 10.14L21.04 7.62L25.46 7.62C26.5 7.62 27.29 7.42 27.83 7.02C28.4 6.62 28.68 6.02 28.68 5.22C28.68 4.4 28.4 3.8 27.83 3.39C27.29 3 26.5 2.8 25.46 2.8L21.27 2.8L21.27 15.2ZM44.59 13.62L44.44 9.77L52.8 0.25L56.13 0.25L49.18 8.35L47.54 10.32L44.59 13.62ZM41.95 17.75L41.95 0.25L44.91 0.25L44.91 17.75L41.95 17.75ZM53.08 17.75L46.97 9.77L48.93 7.39L56.54 17.75L53.08 17.75ZM65.46 18C64.21 18 63.07 17.77 62.02 17.32C60.97 16.87 60.06 16.25 59.28 15.45C58.51 14.63 57.9 13.68 57.48 12.6C57.05 11.5 56.84 10.3 56.84 9C56.84 7.69 57.05 6.5 57.48 5.42C57.9 4.32 58.51 3.37 59.28 2.57C60.06 1.75 60.97 1.12 62.02 0.67C63.07 0.22 64.21 0 65.44 0C66.68 0 67.82 0.22 68.86 0.67C69.91 1.12 70.82 1.75 71.59 2.57C72.37 3.37 72.97 4.32 73.39 5.42C73.82 6.5 74.03 7.69 74.03 9C74.03 10.3 73.82 11.5 73.39 12.6C72.97 13.7 72.37 14.64 71.59 15.45C70.82 16.25 69.91 16.87 68.86 17.32C67.82 17.77 66.69 18 65.46 18ZM65.44 15.14C66.24 15.14 66.99 15 67.67 14.7C68.35 14.39 68.95 13.97 69.45 13.42C69.95 12.85 70.34 12.2 70.61 11.47C70.9 10.72 71.05 9.89 71.05 9C71.05 8.1 70.9 7.28 70.61 6.55C70.34 5.8 69.95 5.14 69.45 4.6C68.95 4.03 68.35 3.6 67.67 3.3C66.99 3 66.24 2.85 65.44 2.85C64.63 2.85 63.89 3 63.2 3.3C62.53 3.6 61.94 4.03 61.42 4.6C60.92 5.14 60.53 5.8 60.24 6.55C59.96 7.28 59.83 8.1 59.83 9C59.83 9.88 59.96 10.7 60.24 11.45C60.53 12.2 60.92 12.85 61.42 13.42C61.93 13.97 62.52 14.39 63.2 14.7C63.89 15 64.63 15.14 65.44 15.14ZM77.17 17.75L77.17 0.25L79.61 0.25L86.59 13.02L85.31 13.02L92.18 0.25L94.62 0.25L94.64 17.75L91.83 17.75L91.81 5.07L92.4 5.07L86.57 15.75L85.24 15.75L79.32 5.07L80 5.07L80 17.75L77.17 17.75ZM98.95 17.75L98.95 0.25L105.52 0.25C106.93 0.25 108.14 0.5 109.14 1C110.16 1.5 110.94 2.21 111.49 3.14C112.04 4.08 112.31 5.19 112.31 6.47C112.31 7.75 112.04 8.86 111.49 9.8C110.94 10.73 110.16 11.45 109.14 11.95C108.14 12.45 106.93 12.7 105.52 12.7L100.59 12.7L101.91 11.17L101.91 17.75L98.95 17.75ZM101.91 11.52L100.59 9.94L105.38 9.94C106.69 9.94 107.67 9.64 108.32 9.05C108.99 8.43 109.32 7.57 109.32 6.47C109.32 5.35 108.99 4.5 108.32 3.89C107.67 3.3 106.69 3 105.38 3L100.59 3L101.91 1.39L101.91 11.52ZM122.97 18C121.72 18 120.58 17.77 119.53 17.32C118.48 16.87 117.57 16.25 116.79 15.45C116.02 14.63 115.42 13.68 114.99 12.6C114.57 11.5 114.35 10.3 114.35 9C114.35 7.69 114.57 6.5 114.99 5.42C115.42 4.32 116.02 3.37 116.79 2.57C117.57 1.75 118.48 1.12 119.53 0.67C120.58 0.22 121.72 0 122.95 0C124.19 0 125.33 0.22 126.37 0.67C127.42 1.12 128.33 1.75 129.1 2.57C129.88 3.37 130.48 4.32 130.91 5.42C131.33 6.5 131.54 7.69 131.54 9C131.54 10.3 131.33 11.5 130.91 12.6C130.48 13.7 129.88 14.64 129.1 15.45C128.33 16.25 127.42 16.87 126.37 17.32C125.33 17.77 124.2 18 122.97 18ZM122.95 15.14C123.75 15.14 124.5 15 125.18 14.7C125.87 14.39 126.46 13.97 126.96 13.42C127.46 12.85 127.85 12.2 128.12 11.47C128.41 10.72 128.56 9.89 128.56 9C128.56 8.1 128.41 7.28 128.12 6.55C127.85 5.8 127.46 5.14 126.96 4.6C126.46 4.03 125.87 3.6 125.18 3.3C124.5 3 123.75 2.85 122.95 2.85C122.14 2.85 121.4 3 120.71 3.3C120.04 3.6 119.45 4.03 118.94 4.6C118.43 5.14 118.04 5.8 117.75 6.55C117.48 7.28 117.34 8.1 117.34 9C117.34 9.88 117.48 10.7 117.75 11.45C118.04 12.2 118.43 12.85 118.94 13.42C119.44 13.97 120.03 14.39 120.71 14.7C121.4 15 122.14 15.14 122.95 15.14ZM134.69 17.75L134.69 0.25L137.12 0.25L147.13 13.72L145.92 13.72L145.92 0.25L148.87 0.25L148.87 17.75L146.43 17.75L136.42 4.27L137.63 4.27L137.63 17.75L134.69 17.75ZM155.88 7.52L163.81 7.52L163.81 10.2L155.88 10.2L155.88 7.52ZM156.11 15.02L165.11 15.02L165.11 17.75L153.14 17.75L153.14 0.25L164.79 0.25L164.79 2.97L156.11 2.97L156.11 15.02ZM168.42 17.75L168.42 0.25L170.86 0.25L180.87 13.72L179.66 13.72L179.66 0.25L182.6 0.25L182.6 17.75L180.16 17.75L170.15 4.27L171.36 4.27L171.36 17.75L168.42 17.75ZM190.11 17.75L190.11 3L184.82 3L184.82 0.25L198.37 0.25L198.37 3L193.08 3L193.08 17.75L190.11 17.75ZM197.53 17.75L204.71 0.25L207.63 0.25L214.84 17.75L211.74 17.75L205.56 1.97L206.74 1.97L200.59 17.75L197.53 17.75ZM200.84 13.7L201.64 11.14L210.25 11.14L211.05 13.7L200.84 13.7Z" fill="#091D71" fill-opacity="1.000000" fill-rule="nonzero"/>
	</g>
</svg>
