<svg width="49.878906" height="15.537720" viewBox="0 0 49.8789 15.5377" fill="none" xmlns="http://www.w3.org/2000/svg" xmlns:xlink="http://www.w3.org/1999/xlink">
	<desc>
			Created with Pixso.
	</desc>
	<defs/>
	<path id="Vector" d="M19.97 0.25L17.43 15.31L21.49 15.31L24.02 0.25L19.97 0.25Z" fill="#091D71" fill-opacity="1.000000" fill-rule="nonzero"/>
	<path id="Vector" d="M14.03 0.27L10.06 10.54L9.64 8.99C8.86 7.12 6.63 4.44 4.02 2.75L7.65 15.3L11.94 15.29L18.33 0.27L14.03 0.27Z" fill="#091D71" fill-opacity="1.000000" fill-rule="nonzero"/>
	<path id="Vector" d="M8.1 1.35C7.86 0.43 7.18 0.16 6.33 0.12L0.05 0.12L0 0.42C4.89 1.63 8.12 4.52 9.47 8L8.1 1.35Z" fill="#091D71" fill-opacity="1.000000" fill-rule="nonzero"/>
	<path id="Vector" d="M32.24 3.14C33.57 3.12 34.53 3.41 35.27 3.72L35.64 3.89L36.19 0.63C35.39 0.32 34.13 0 32.56 0C28.55 0 25.73 2.04 25.71 4.96C25.68 7.13 27.72 8.33 29.26 9.05C30.84 9.79 31.37 10.26 31.36 10.92C31.35 11.93 30.1 12.39 28.93 12.39C27.31 12.39 26.45 12.16 25.12 11.6L24.59 11.36L24.02 14.73C24.97 15.15 26.72 15.51 28.54 15.53C32.8 15.53 35.57 13.52 35.6 10.39C35.62 8.68 34.54 7.37 32.19 6.3C30.78 5.6 29.91 5.14 29.92 4.43C29.92 3.81 30.65 3.14 32.24 3.14Z" fill="#091D71" fill-opacity="1.000000" fill-rule="nonzero"/>
	<path id="Vector" d="M46.59 0.27L43.46 0.27C42.49 0.27 41.76 0.54 41.34 1.52L35.32 15.31L39.58 15.31C39.58 15.31 40.27 13.46 40.43 13.05C40.89 13.05 45.03 13.06 45.62 13.06C45.74 13.58 46.11 15.31 46.11 15.31L49.87 15.31L46.59 0.27ZM41.59 9.97C41.93 9.11 43.21 5.76 43.21 5.76C43.19 5.81 43.54 4.89 43.75 4.33L44.02 5.63C44.02 5.63 44.8 9.22 44.96 9.97L41.59 9.97Z" fill="#091D71" fill-opacity="1.000000" fill-rule="nonzero"/>
</svg>
