<svg width="55.803711" height="15.647095" viewBox="0 0 55.8037 15.6471" fill="none" xmlns="http://www.w3.org/2000/svg" xmlns:xlink="http://www.w3.org/1999/xlink">
	<desc>
			Created with Pixso.
	</desc>
	<defs/>
	<mask id="mask10_296" mask-type="alpha" maskUnits="userSpaceOnUse" x="0.000000" y="0.000000" width="55.803711" height="15.647095">
		<path id="Vector" d="M0 0L55.8 0L55.8 15.64L0 15.64L0 0Z" fill="#000000" fill-opacity="1.000000" fill-rule="evenodd"/>
	</mask>
	<g mask="url(#mask10_296)">
		<path id="Vector" d="M50.17 0L39.48 0C39.73 3.44 42.66 6.39 45.69 6.39L55.7 6.39C56.28 3.53 54.29 0 50.17 0Z" fill="#091D71" fill-opacity="1.000000" fill-rule="evenodd"/>
		<path id="Vector" d="M0 7.77L0 15.51L2.46 15.51L4.92 15.51L4.92 11C4.92 6.71 5.01 5.88 5.37 6.6C5.49 6.84 7.49 13.29 7.97 14.98L8.12 15.51L9.99 15.51L11.87 15.51L13.21 11.13C13.94 8.73 14.63 6.64 14.73 6.5C14.89 6.29 14.93 7.19 14.93 10.87L14.94 15.51L17.48 15.51L20.03 15.51L20.03 7.76L20.03 0.01L16.94 0.06C12.64 0.13 12.84 -0.05 11.29 5.37C10.58 7.82 10.13 9.14 10 9.14C9.86 9.14 9.42 7.83 8.72 5.4C8.14 3.34 7.53 1.42 7.36 1.14C6.79 0.15 6.31 0.03 2.98 0.03L0 0.03L0 7.77ZM22.09 7.77L22.09 15.51L24.61 15.51C26.93 15.51 27.18 15.48 27.82 15.14C28.64 14.7 28.78 14.44 30.88 9.72C31.69 7.91 32.43 6.39 32.54 6.36C32.7 6.31 32.74 7.29 32.74 10.9L32.74 15.51L35.29 15.51L37.83 15.51L37.83 7.77L37.83 0.03L35.36 0.03C32.64 0.03 32.12 0.16 31.46 0.94C31.25 1.2 30.29 3.17 29.32 5.32C28.36 7.46 27.49 9.22 27.38 9.22C27.22 9.22 27.18 8.2 27.18 4.63L27.18 0.03L24.63 0.03L22.09 0.03L22.09 7.77ZM39.9 11.48L39.9 15.51L42.28 15.51L44.66 15.51L44.7 13.21L44.74 10.91L48.24 10.83C51.6 10.75 51.77 10.74 52.63 10.33C53.72 9.81 54.64 8.99 55.13 8.11L55.49 7.45L47.7 7.45L39.9 7.45L39.9 11.48Z" fill="#091D71" fill-opacity="1.000000" fill-rule="evenodd"/>
	</g>
</svg>
